<svg xmlns="http://www.w3.org/2000/svg" version="1.1" xmlns:xlink="http://www.w3.org/1999/xlink" xmlns:svgjs="http://svgjs.dev/svgjs" width="397" height="397"><svg id="SvgjsSvg1415" data-name="레이어_1" xmlns="http://www.w3.org/2000/svg" version="1.1" xmlns:xlink="http://www.w3.org/1999/xlink" viewBox="0 0 397 397">
  <!-- Generator: Adobe Illustrator 29.2.1, SVG Export Plug-In . SVG Version: 2.1.0 Build 116)  -->
  <defs>
    <style>
      .st0 {
        fill: #e2005c;
      }
    </style>
  </defs>
  <g>
    <g>
      <path class="st0" d="M196.9,356.6c-50.1-.5-87.1-13.9-109.9-40-27.3-31.2-24.3-69.1-23.8-73.7.8-78.7,38.2-150.6,39.8-153.6l12.1,6.4c-.4.7-37.6,72.3-38.2,147.7v.8c0,.3-4,35.8,20.6,63.6,20.2,22.9,53.6,34.8,99.5,35.2,45.7-.4,79.2-12.3,99.4-35.2,24.5-27.9,20.6-63.3,20.6-63.7v-.8c-.7-75.4-37.9-147-38.3-147.7l12.1-6.4c1.6,3,39,74.9,39.8,153.6.5,4.7,3.5,42.6-23.8,73.7-22.8,26.1-59.8,39.5-109.8,40Z"></path>
      <path class="st0" d="M196.9,358h0c-50.5-.5-87.8-14.1-110.9-40.5-27.8-31.7-24.6-70.5-24.1-74.8.8-78.9,38.4-151.1,40-154.1l.6-1.2,14.5,7.7-.6,1.2c-.4.7-37.5,72-38.1,147.1v.9c-.1.4-3.8,35.3,20.2,62.7,19.9,22.6,53,34.3,98.5,34.7,45.3-.4,78.4-12.1,98.3-34.7,24.1-27.4,20.3-62.2,20.3-62.6v-.8c-.7-75.4-37.8-146.4-38.1-147.1l-.6-1.2,14.5-7.7.6,1.2c1.6,3,39.2,75.2,40,154.2.4,4.2,3.6,43-24.1,74.7-23.1,26.4-60.4,40-110.8,40.5h0ZM103.6,91.2c-5.2,10.2-38.3,77.9-39,151.7-.4,4.3-3.5,42,23.5,72.8,22.5,25.8,59.2,39,108.8,39.5,49.6-.5,86.2-13.8,108.7-39.5,27-30.8,23.9-68.5,23.5-72.7-.7-73.9-33.8-141.7-39-151.9l-9.6,5.1c4.9,9.8,37.2,76.6,37.8,147.1v.7c0,.3,4.1,36.2-20.9,64.7-20.4,23.2-54.2,35.2-100.4,35.7-46.3-.4-80.1-12.4-100.5-35.7-24.9-28.4-21-64.4-20.9-64.7v-.7c.6-70.2,32.9-137.2,37.8-147l-9.6-5.1Z"></path>
    </g>
    <g>
      <path class="st0" d="M196.8,112.6c-23.8,0-46.2-1.4-63.1-3.8-22.7-3.3-31.5-7.8-31.5-15.9s8.8-12.5,31.5-15.9c16.9-2.5,39.3-3.8,63.1-3.8s46.2,1.4,63,3.8c22.7,3.3,31.5,7.8,31.5,15.9s-8.8,12.5-31.5,15.9c-16.9,2.5-39.3,3.8-63,3.8ZM123.1,92.9c12.2,2.9,37,6.1,73.8,6.1s61.6-3.2,73.8-6.1c-12.2-2.9-37-6.1-73.8-6.1s-61.6,3.2-73.8,6.1Z"></path>
      <path class="st0" d="M196.8,114c-23.8,0-46.3-1.4-63.3-3.9-23.5-3.5-32.7-8.3-32.7-17.2s9.2-13.8,32.7-17.2c17-2.5,39.4-3.9,63.3-3.9s46.3,1.4,63.3,3.9c23.5,3.5,32.7,8.3,32.7,17.2s-9.2,13.8-32.7,17.2c-17,2.5-39.4,3.9-63.3,3.9ZM196.8,74.6c-23.7,0-46,1.4-62.9,3.8-21.6,3.2-30.4,7.4-30.4,14.5s8.8,11.3,30.4,14.5c16.8,2.5,39.1,3.8,62.9,3.8s46-1.4,62.9-3.8c21.6-3.2,30.4-7.4,30.4-14.5s-8.8-11.3-30.4-14.5c-16.8-2.5-39.2-3.8-62.9-3.8ZM196.8,100.4c-45.1,0-68.1-4.7-74.1-6.1l-5.6-1.3,5.6-1.3c6-1.4,28.9-6.1,74.1-6.1s68.1,4.7,74.1,6.1l5.6,1.3-5.6,1.3c-6,1.4-29,6.1-74.1,6.1ZM129.9,92.9c10.6,1.9,32.1,4.7,66.9,4.7s56.3-2.8,66.9-4.7c-10.6-1.9-32.1-4.7-66.9-4.7s-56.3,2.8-66.9,4.7Z"></path>
    </g>
    <g>
      <path class="st0" d="M139.8,237.1c-24.8,0-47.7-4.8-68.3-14.4l-4.9-2.3,1.1-5.3c.4-1.8,4.5-18.1,32.4-28.9,34.4-13.2,89.3-12.5,163.4,2.1,26.9-14.1,44.3-27.1,44.8-27.5l8.2,10.9c-1.4,1-34.1,25.7-80.6,44.6-34,13.8-66.4,20.7-96.2,20.7ZM83.8,213.3c54,21.7,114.5,5.2,159-14.8-117.6-20.3-150.4,3.8-159,14.8Z"></path>
      <path class="st0" d="M139.8,238.5c-25,0-48.2-4.9-68.9-14.5l-5.9-2.7,1.3-6.4c.4-1.9,4.7-18.9,33.3-29.9,34.5-13.3,89.6-12.6,163.7,1.9,26.6-14,44-27,44.2-27.1l1.1-.8,9.9,13.1-1.1.8c-1.4,1.1-34.1,25.8-80.9,44.8-34,13.8-66.6,20.8-96.7,20.8ZM68.1,219.7l3.9,1.8c20.3,9.4,43.1,14.2,67.7,14.2s62-6.9,95.7-20.6c42.3-17.2,73-39,79.2-43.6l-6.6-8.7c-4.3,3.1-20.7,14.6-43.9,26.8l-.4.2h-.5c-73.8-14.6-128.5-15.3-162.6-2.2-27.2,10.5-31.2,26.1-31.6,27.9l-.9,4.2ZM139.3,224.9c-18.8,0-37.7-3-56-10.3l-1.7-.7,1.1-1.4c8.9-11.4,42.3-35.7,160.3-15.3l4.4.8-4.1,1.9c-28.5,12.8-65.8,25.1-104.1,25.1ZM86.1,212.7c52.3,20.1,110.7,4.3,151.9-13.6-108.1-17.9-141.8,2.3-151.9,13.6Z"></path>
    </g>
  </g>
  <path class="st0" d="M334,45c-10.1-3.2-17.8-14.8-18.8-29.1,0-1-.1-1.9-.1-2.9,0,1,0,2-.1,2.9-.9,14.3-8.6,25.9-18.8,29.1-1.8.6-3.7.9-5.6.9,1.9,0,3.8.3,5.6.9,10.1,3.2,17.8,14.8,18.8,29.1,0,1,.1,1.9.1,2.9,0-1,0-2,.1-2.9.9-14.3,8.6-25.9,18.8-29.1,1.8-.6,3.7-.9,5.6-.9-1.9,0-3.8-.3-5.6-.9Z"></path>
  <path class="st0" d="M362,78.3c-6.3-2-11-9.2-11.6-18,0-.6,0-1.2,0-1.8,0,.6,0,1.2,0,1.8-.6,8.8-5.4,16.1-11.6,18-1.1.3-2.3.6-3.5.6,1.2,0,2.4.2,3.5.6,6.3,2,11,9.2,11.6,18,0,.6,0,1.2,0,1.8,0-.6,0-1.2,0-1.8.6-8.8,5.4-16.1,11.6-18,1.1-.3,2.3-.6,3.5-.6-1.2,0-2.4-.2-3.5-.6Z"></path>
</svg><style>@media (prefers-color-scheme: light) { :root { filter: none; } }
@media (prefers-color-scheme: dark) { :root { filter: none; } }
</style></svg>