<?xml version="1.0" encoding="UTF-8"?>
<svg id="_레이어_1" data-name="레이어_1" xmlns="http://www.w3.org/2000/svg" version="1.1" viewBox="0 0 580.8 580.8">
  <!-- Generator: Adobe Illustrator 29.2.1, SVG Export Plug-In . SVG Version: 2.1.0 Build 116)  -->
  <defs>
    <style>
      .st0 {
        fill: #00ff5b;
      }
    </style>
  </defs>
  <g>
    <path class="st0" d="M117.93,9.66c2.13.78,3.8,1.84,4.98,3.19,1.19,1.35,1.78,2.85,1.78,4.49,0,1.77-.64,3.24-1.92,4.38-1.28,1.15-3.01,1.73-5.19,1.73s-3.97-.54-5.22-1.63c-1.25-1.09-1.88-2.56-1.88-4.42,0-.88.14-1.82.42-2.79-1.95.49-3.68,1.45-5.19,2.89-1.51,1.44-2.52,3.34-3.03,5.69-.28,1.33-.42,2.53-.42,3.59,0,2.39.7,4.21,2.09,5.45,1.39,1.24,3.39,1.86,5.99,1.86,1.48,0,2.76-.14,3.83-.43,1.06-.29,2.15-.68,3.27-1.17.93-.44,1.6-.67,2.02-.67.28,0,.47.06.56.17.1.11.14.34.14.7.05,1.64-.66,3.36-2.12,5.15s-3.48,3.3-6.06,4.52c-2.58,1.22-5.46,1.83-8.67,1.83s-6.3-.58-8.88-1.76c-2.57-1.18-4.57-2.86-5.99-5.06-1.41-2.19-2.12-4.76-2.12-7.68,0-1.37.19-2.9.56-4.59,1.25-5.5,4.03-9.64,8.32-12.43,4.29-2.8,9.39-4.19,15.28-4.19,2.83,0,5.32.39,7.45,1.16"/>
    <path class="st0" d="M153.04,18.94c2.39,1.94,3.58,4.48,3.58,7.62,0,1.06-.15,2.25-.44,3.55-.7,2.89-2.02,5.43-3.94,7.6-1.92,2.17-4.28,3.85-7.07,5.03-2.79,1.19-5.81,1.77-9.07,1.77-5.14,0-8.94-.98-11.39-2.94-2.46-1.96-3.69-4.56-3.69-7.81,0-1.1.15-2.31.45-3.65.7-2.76,2.04-5.2,4.02-7.34,1.98-2.13,4.4-3.8,7.26-4.98,2.86-1.19,5.93-1.77,9.18-1.77,5.03,0,8.74.97,11.12,2.91M139.29,22.73c-.87,1.32-1.9,3.82-3.08,7.49-1.19,3.67-1.77,6.25-1.77,7.74,0,.78.13,1.3.39,1.56s.61.4,1.05.4c.78.07,1.58-.57,2.41-1.91.83-1.34,1.87-3.96,3.13-7.84,1.15-3.42,1.72-5.91,1.72-7.47,0-.74-.12-1.25-.36-1.54-.24-.28-.58-.42-1.03-.42-.78,0-1.6.66-2.47,1.99"/>
    <path class="st0" d="M202.01,10.66c1.11,1.07,1.67,2.41,1.67,3.99,0,.6-.07,1.16-.2,1.66-.33,1.3-.96,2.3-1.89,2.99-.93.7-2.04,1.05-3.33,1.05s-2.21-.29-2.86-.86c-.65-.57-1.22-1.33-1.72-2.28-.26-.54-1.28-1.05-1.59-1.19-3.94-1.66-18.52,6.88-18.68,6.98-.28.16-.54.4-.79.65-.25.25-.47.7-.67,1.33l-3.83,11.87c-.07.16-.1.4-.1.71,0,.41.13.75.38,1.02.25.27.59.53,1.02.79.4.25.66.46.8.61.13.16.18.37.15.62-.07.41-.31.71-.72.9-.42.19-1.12.29-2.12.29h-12.73c-.86,0-1.48-.13-1.86-.4-.38-.27-.52-.63-.42-1.07.13-.38.48-.71,1.04-1,.5-.25.92-.56,1.24-.91.33-.35.61-.9.85-1.66l4.43-13.72c.06-.16.1-.38.1-.67,0-.34-.07-.61-.22-.8-.15-.19-.39-.43-.72-.71-.33-.25-.57-.47-.7-.66-.13-.19-.15-.45-.05-.76.2-.73,1.24-1.37,3.13-1.92s3.86-.83,5.91-.83c1.36,0,2.49.29,3.38.88.89.59,1.48,1.42,1.74,2.49,1.22-3.37,22.33-11,24.91-11,1.86,0,3.34.54,4.45,1.61"/>
    <path class="st0" d="M195.8,23.67c1.65,1.12,2.47,2.54,2.47,4.28,0,.52-.06,1.01-.17,1.45-.43,1.82-1.64,3.12-3.62,3.91-1.98.79-4.31,1.18-6.99,1.18-1.36,0-2.63-.08-3.81-.25-.03,1.43.38,2.44,1.21,3.02.84.58,2.01.87,3.51.87.69,0,1.36-.07,2-.23.64-.15,1.44-.38,2.43-.68.81-.28,1.36-.42,1.65-.42.32,0,.48.18.48.54.03.96-.35,1.98-1.13,3.04-.78,1.06-1.93,1.96-3.46,2.71-1.54.75-3.38,1.12-5.55,1.12-3.2,0-5.83-.77-7.88-2.32-2.05-1.54-3.07-3.79-3.07-6.74,0-.83.11-1.8.34-2.9.72-3.39,2.3-5.95,4.74-7.67,2.44-1.73,5.41-2.59,8.9-2.59,3.67,0,6.33.56,7.97,1.68M184.46,31.79c1.21,0,2.14-.54,2.77-1.61s.94-2.27.91-3.6c-.03-.77-.26-1.15-.69-1.15-.32,0-.69.24-1.13.72-.43.49-.86,1.21-1.28,2.18-.42.96-.77,2.11-1.06,3.43.12.03.28.04.48.04"/>
    <path class="st0" d="M227.68,38.48c-.06.12-.09.3-.09.53,0,.21.05.37.16.49.11.12.25.17.44.17.37,0,.68-.15.95-.47.26-.31.44-.46.53-.46.15,0,.28.1.37.29.1.19.14.42.14.68.03.86-.26,1.68-.88,2.49-.61.81-1.51,1.47-2.7,1.99s-2.61.77-4.27.77c-2.03,0-3.65-.45-4.85-1.35-1.2-.9-1.82-2.1-1.85-3.6,0-1.09.28-2.31.83-3.66l2.54-6.35c.15-.38.23-.69.23-.93,0-.38-.13-.68-.39-.91s-.58-.33-.95-.33c-.68,0-1.32.3-1.94.9-.62.6-1.06,1.35-1.34,2.23l-2.86,9c-.13.33-.19.64-.19.93,0,.35.07.64.23.86.16.22.37.45.65.68.21.17.37.34.46.49.09.15.11.32.04.53-.12.38-.41.66-.87.84-.47.17-1.19.26-2.17.26h-10.54c-.8,0-1.38-.13-1.73-.38s-.49-.58-.39-.99c.12-.35.45-.66.97-.93.46-.24.85-.51,1.15-.84.31-.32.57-.84.79-1.54l4.11-12.76c.06-.14.1-.35.1-.62,0-.32-.07-.57-.21-.75-.14-.17-.36-.4-.67-.66-.31-.24-.52-.44-.65-.62-.13-.17-.14-.41-.05-.7.19-.68,1.15-1.27,2.91-1.79,1.75-.51,3.58-.77,5.5-.77,1.54,0,2.75.4,3.65,1.21.89.81,1.3,1.93,1.2,3.37,1.27-1.74,2.61-2.93,4.02-3.6,1.42-.66,2.96-.99,4.62-.99,1.88,0,3.39.54,4.55,1.63,1.15,1.09,1.74,2.5,1.74,4.24,0,.91-.16,1.81-.47,2.69l-2.82,8.69Z"/>
    <path class="st0" d="M264.77,16.88c1.05.57,1.89,1.29,2.49,2.17.61.88.92,1.8.92,2.75,0,1.34-.39,2.5-1.17,3.47-.77.97-2.01,1.93-3.71,2.89l-11.76,6.67c1.11,1.2,2.2,1.8,3.27,1.8.85,0,1.61-.3,2.28-.9.66-.6,1.42-1.47,2.27-2.59.52-.67.91-1.15,1.17-1.43.26-.29.52-.42.77-.42.67,0,1.4.23,2.19.69.79.46,1.48,1.13,2.05,2.01.57.88.86,1.94.86,3.18s-.34,2.45-1.03,3.52c-.68,1.08-1.64,1.93-2.88,2.57s-2.69.95-4.36.95-2.99-.27-4.1-.82c-1.11-.55-1.97-1.15-2.58-1.83-.61-.67-1.21-1.46-1.81-2.38-.48-.81-.85-1.22-1.11-1.22-.22,0-.46.13-.69.37-.24.25-.58.67-1.03,1.27-1,1.38-2.02,2.49-3.08,3.34-1.05.85-2.43,1.27-4.13,1.27s-3.1-.28-4.41-.85c-1.31-.56-2.35-1.31-3.11-2.25-.76-.93-1.13-1.95-1.13-3.04,0-1.94,1.35-3.73,4.05-5.35l14.25-8.32c-.63-.74-1.19-1.27-1.66-1.59-.48-.32-1-.48-1.56-.48-.7,0-1.3.24-1.8.71-.5.48-1.01,1.14-1.52,1.99-.37.57-.67.99-.92,1.27-.24.29-.51.42-.8.42-1.14,0-2.14-.39-2.99-1.17-.85-.77-1.28-1.83-1.28-3.18,0-1.09.29-2.12.86-3.1.57-.97,1.39-1.76,2.44-2.36,1.05-.6,2.28-.9,3.69-.9,2.03,0,3.61.47,4.74,1.4s2.13,2.09,3.02,3.47c.51.78.87,1.17,1.05,1.17s.4-.11.64-.34c.24-.23.44-.46.61-.69.17-.23.31-.4.42-.5,1.11-1.38,2.18-2.47,3.21-3.28,1.04-.81,2.35-1.22,3.94-1.22,1.22,0,2.36.28,3.41.85"/>
    <path class="st0" d="M294.43,20.39c2.02,1.65,3.03,3.81,3.03,6.48,0,.9-.13,1.91-.38,3.01-.6,2.46-1.71,4.61-3.34,6.45-1.64,1.84-3.64,3.27-6,4.27-2.37,1-4.94,1.5-7.7,1.5-4.36,0-7.59-.83-9.68-2.49-2.09-1.66-3.13-3.88-3.13-6.63,0-.93.12-1.96.38-3.1.59-2.34,1.73-4.42,3.42-6.23,1.68-1.82,3.73-3.22,6.17-4.23,2.43-1,5.03-1.5,7.79-1.5,4.27,0,7.42.82,9.45,2.47M282.75,23.61c-.74,1.12-1.61,3.25-2.62,6.36-1,3.12-1.5,5.31-1.5,6.57,0,.66.11,1.1.33,1.33.22.22.52.33.89.33.66.06,1.35-.48,2.05-1.61.7-1.14,1.59-3.36,2.66-6.66.97-2.91,1.46-5.02,1.46-6.34,0-.63-.1-1.06-.31-1.3-.2-.24-.49-.36-.87-.36-.66,0-1.36.56-2.1,1.68"/>
    <path class="st0" d="M336.72,36.89c-.07.14-.11.35-.11.64,0,.25.06.44.2.58.13.14.3.21.52.21.44,0,.82-.19,1.14-.56.31-.37.52-.56.64-.56.19,0,.33.12.45.34.11.23.17.5.17.82.03,1.03-.32,2.02-1.05,2.99-.74.97-1.82,1.77-3.25,2.38-1.42.62-3.13.93-5.13.93-2.44,0-4.38-.53-5.82-1.61-1.44-1.07-2.18-2.52-2.21-4.32,0-1.31.33-2.77,1-4.39l3.05-7.63c.19-.46.28-.83.28-1.11,0-.46-.15-.82-.47-1.09-.31-.26-.69-.4-1.13-.4-.7,0-1.41.31-2.13.93-.73.62-1.31,1.61-1.75,3v-.11l-3.49,10.75c-.11.42-.17.79-.17,1.11,0,.46.1.82.28,1.09.19.27.44.52.77.77.26.25.44.45.56.61.11.16.13.37.06.61-.19.46-.56.79-1.11,1.01-.56.21-1.4.32-2.55.32h-12.64c-.96,0-1.67-.15-2.11-.45-.44-.3-.59-.69-.44-1.19.15-.42.53-.79,1.17-1.11.55-.28,1.02-.61,1.39-1.01.37-.39.68-1.01.94-1.85l8.44-26.43c.11-.32.16-.58.16-.79,0-.39-.1-.71-.31-.95-.2-.25-.47-.5-.81-.74-.37-.29-.64-.53-.8-.74-.16-.21-.19-.5-.08-.85.22-.81,1.39-1.51,3.49-2.11,2.11-.6,4.3-.91,6.6-.91,2.14,0,3.72.39,4.74,1.16,1.02.78,1.52,1.84,1.52,3.18,0,.77-.13,1.54-.39,2.28l-3,9.32c1.45-1.8,2.97-3.06,4.58-3.76,1.6-.7,3.35-1.06,5.24-1.06,2.26,0,4.08.65,5.46,1.96,1.39,1.31,2.08,3,2.08,5.08,0,1.1-.19,2.17-.56,3.23l-3.38,10.44Z"/>
    <path class="st0" d="M374.68,19.1c2.39,1.94,3.58,4.48,3.58,7.62,0,1.06-.15,2.25-.44,3.55-.7,2.89-2.02,5.43-3.94,7.6-1.92,2.17-4.28,3.85-7.07,5.03-2.79,1.19-5.81,1.77-9.07,1.77-5.14,0-8.94-.98-11.39-2.94-2.46-1.96-3.69-4.56-3.69-7.81,0-1.1.15-2.31.45-3.65.7-2.76,2.04-5.2,4.02-7.34,1.98-2.13,4.4-3.8,7.26-4.98,2.86-1.19,5.93-1.77,9.18-1.77,5.03,0,8.74.97,11.12,2.91M360.92,22.88c-.87,1.32-1.9,3.82-3.08,7.49-1.19,3.67-1.77,6.25-1.77,7.74,0,.78.13,1.3.39,1.56s.61.4,1.05.4c.78.07,1.58-.57,2.41-1.91.83-1.34,1.87-3.96,3.13-7.84,1.15-3.42,1.72-5.91,1.72-7.47,0-.74-.12-1.25-.36-1.54-.24-.28-.58-.42-1.03-.42-.78,0-1.6.66-2.47,1.99"/>
    <path class="st0" d="M411.42,36.89c-.07.28-.11.49-.11.64,0,.25.06.44.2.58.13.14.3.21.52.21.44,0,.82-.19,1.14-.56.31-.37.52-.56.64-.56.19,0,.34.12.47.34.13.23.2.5.2.82.04.99-.33,1.97-1.11,2.94-.77.97-1.86,1.77-3.27,2.41-1.41.64-2.98.95-4.72.95-2.18,0-3.92-.42-5.21-1.27-1.3-.85-2.13-1.96-2.49-3.34-1.33,1.41-2.8,2.48-4.41,3.2-1.61.73-3.25,1.09-4.91,1.09-2.59,0-4.76-.61-6.51-1.83-1.76-1.22-2.64-2.92-2.64-5.11,0-.99.19-2.01.56-3.07l3.55-11.07c.11-.32.16-.58.16-.79,0-.39-.09-.69-.28-.93-.19-.23-.46-.47-.83-.71-.37-.28-.63-.53-.78-.74-.15-.21-.16-.49-.05-.85.22-.81,1.39-1.52,3.49-2.14s4.3-.93,6.6-.93c2.14,0,3.72.39,4.71,1.16,1,.78,1.5,1.84,1.5,3.18,0,.82-.13,1.59-.39,2.33l-3.49,11.02c-.15.39-.22.76-.22,1.11,0,.49.15.86.44,1.11.3.25.68.37,1.16.37.7,0,1.28-.2,1.72-.58.44-.39.89-1.04,1.33-1.96l3.38-10.65c.11-.32.16-.58.16-.79,0-.39-.1-.69-.28-.93-.19-.23-.44-.47-.78-.71-.37-.28-.63-.53-.78-.74-.15-.21-.16-.49-.05-.85.19-.81,1.33-1.52,3.44-2.14s4.3-.93,6.6-.93c2.14,0,3.72.39,4.74,1.16,1.02.78,1.52,1.82,1.52,3.12,0,.67-.15,1.47-.44,2.38l-4.49,14.04Z"/>
    <path class="st0" d="M442.72,16.5c2.23.53,3.96,1.27,5.16,2.22,1.2.95,1.8,2.03,1.8,3.23s-.51,2.25-1.53,3.02c-1.02.77-2.43,1.17-4.24,1.17s-3.41-.44-4.69-1.33c-1.28-.88-1.91-1.99-1.91-3.34,0-.46.07-.9.22-1.32-.67-.17-1.26-.26-1.77-.26-.93,0-1.69.21-2.3.64-.61.42-.89,1.03-.86,1.8,0,.92.48,1.69,1.44,2.33.96.64,2.52,1.43,4.66,2.39,1.85.77,3.37,1.49,4.57,2.14,1.2.65,2.22,1.47,3.05,2.46.83.99,1.24,2.15,1.24,3.49,0,.28-.07.81-.22,1.59-.59,2.37-2.24,4.24-4.94,5.61-2.7,1.38-6.25,2.07-10.64,2.07-4.96,0-8.88-.64-11.79-1.91-2.9-1.27-4.35-3.02-4.35-5.24,0-1.52.48-2.66,1.44-3.44.96-.78,2.24-1.17,3.83-1.17,1.85,0,3.43.55,4.74,1.64,1.31,1.1,1.97,2.49,1.97,4.18,0,.46-.05.94-.16,1.43.88.21,1.74.32,2.55.32.96,0,1.75-.24,2.38-.74.62-.49.94-1.18.94-2.06-.04-.81-.47-1.51-1.28-2.09-.82-.58-2.11-1.28-3.88-2.09-1.66-.74-3.03-1.44-4.1-2.09-1.07-.66-1.99-1.48-2.75-2.46-.76-.99-1.13-2.15-1.13-3.5,0-2.89,1.27-5.19,3.8-6.91,2.53-1.71,6.13-2.57,10.79-2.57,3.07,0,5.72.26,7.96.79"/>
    <path class="st0" d="M478.41,18.07c2.11,1.43,3.16,3.26,3.16,5.48,0,.67-.07,1.29-.22,1.85-.56,2.33-2.1,4-4.63,5-2.54,1.01-5.52,1.51-8.96,1.51-1.74,0-3.36-.11-4.88-.32-.04,1.84.48,3.12,1.55,3.87,1.07.74,2.57,1.11,4.49,1.11.89,0,1.74-.1,2.55-.29.81-.19,1.85-.48,3.1-.87,1.04-.35,1.74-.53,2.11-.53.41,0,.61.23.61.69.04,1.24-.44,2.54-1.44,3.9-1,1.36-2.48,2.52-4.44,3.47s-4.33,1.43-7.1,1.43c-4.1,0-7.47-.99-10.09-2.97-2.63-1.98-3.94-4.86-3.94-8.64,0-1.06.15-2.29.44-3.71.92-4.34,2.95-7.62,6.07-9.82,3.12-2.21,6.92-3.31,11.39-3.31s8.1.71,10.2,2.15M463.88,28.47c1.55,0,2.74-.69,3.55-2.06.82-1.38,1.2-2.91,1.16-4.61-.04-.99-.33-1.48-.88-1.48-.41,0-.89.31-1.45.93-.55.61-1.1,1.55-1.64,2.78-.53,1.23-.99,2.7-1.36,4.39.15.04.35.05.61.05"/>
    <path class="st0" d="M494.47,39c0,3.06-2.48,5.54-5.54,5.54s-5.54-2.48-5.54-5.54,2.48-5.54,5.54-5.54,5.54,2.48,5.54,5.54"/>
  </g>
  <g>
    <path class="st0" d="M117.93,541.45c2.13.78,3.8,1.84,4.98,3.19,1.19,1.35,1.78,2.85,1.78,4.49,0,1.77-.64,3.24-1.92,4.38-1.28,1.15-3.01,1.73-5.19,1.73s-3.97-.54-5.22-1.63c-1.25-1.09-1.88-2.56-1.88-4.42,0-.88.14-1.82.42-2.79-1.95.49-3.68,1.45-5.19,2.89-1.51,1.44-2.52,3.34-3.03,5.69-.28,1.33-.42,2.53-.42,3.59,0,2.39.7,4.21,2.09,5.45,1.39,1.24,3.39,1.86,5.99,1.86,1.48,0,2.76-.14,3.83-.43,1.06-.29,2.15-.68,3.27-1.17.93-.44,1.6-.67,2.02-.67.28,0,.47.06.56.17.1.11.14.34.14.7.05,1.64-.66,3.36-2.12,5.15s-3.48,3.3-6.06,4.52c-2.58,1.22-5.46,1.83-8.67,1.83s-6.3-.58-8.88-1.76c-2.57-1.18-4.57-2.86-5.99-5.06-1.41-2.19-2.12-4.76-2.12-7.68,0-1.37.19-2.9.56-4.59,1.25-5.5,4.03-9.64,8.32-12.43,4.29-2.8,9.39-4.19,15.28-4.19,2.83,0,5.32.39,7.45,1.16"/>
    <path class="st0" d="M153.04,550.73c2.39,1.94,3.58,4.48,3.58,7.62,0,1.06-.15,2.25-.44,3.55-.7,2.89-2.02,5.43-3.94,7.6-1.92,2.17-4.28,3.85-7.07,5.03-2.79,1.19-5.81,1.77-9.07,1.77-5.14,0-8.94-.98-11.39-2.94-2.46-1.96-3.69-4.56-3.69-7.81,0-1.1.15-2.31.45-3.65.7-2.76,2.04-5.2,4.02-7.34,1.98-2.13,4.4-3.8,7.26-4.98,2.86-1.19,5.93-1.77,9.18-1.77,5.03,0,8.74.97,11.12,2.91M139.29,554.52c-.87,1.32-1.9,3.82-3.08,7.49-1.19,3.67-1.77,6.25-1.77,7.74,0,.78.13,1.3.39,1.56s.61.4,1.05.4c.78.07,1.58-.57,2.41-1.91.83-1.34,1.87-3.96,3.13-7.84,1.15-3.42,1.72-5.91,1.72-7.47,0-.74-.12-1.25-.36-1.54-.24-.28-.58-.42-1.03-.42-.78,0-1.6.66-2.47,1.99"/>
    <path class="st0" d="M202.01,542.45c1.11,1.07,1.67,2.41,1.67,3.99,0,.6-.07,1.16-.2,1.66-.33,1.3-.96,2.3-1.89,2.99-.93.7-2.04,1.05-3.33,1.05s-2.21-.29-2.86-.86c-.65-.57-1.22-1.33-1.72-2.28-.26-.54-1.28-1.05-1.59-1.19-3.94-1.66-18.52,6.88-18.68,6.98-.28.16-.54.4-.79.65-.25.25-.47.7-.67,1.33l-3.83,11.87c-.07.16-.1.4-.1.71,0,.41.13.75.38,1.02.25.27.59.53,1.02.79.4.25.66.46.8.61.13.16.18.37.15.62-.07.41-.31.71-.72.9-.42.19-1.12.29-2.12.29h-12.73c-.86,0-1.48-.13-1.86-.4-.38-.27-.52-.63-.42-1.07.13-.38.48-.71,1.04-1,.5-.25.92-.56,1.24-.91.33-.35.61-.9.85-1.66l4.43-13.72c.06-.16.1-.38.1-.67,0-.34-.07-.61-.22-.8-.15-.19-.39-.43-.72-.71-.33-.25-.57-.47-.7-.66-.13-.19-.15-.45-.05-.76.2-.73,1.24-1.37,3.13-1.92s3.86-.83,5.91-.83c1.36,0,2.49.29,3.38.88.89.59,1.48,1.42,1.74,2.49,1.22-3.37,22.33-11,24.91-11,1.86,0,3.34.54,4.45,1.61"/>
    <path class="st0" d="M195.8,555.45c1.65,1.12,2.47,2.54,2.47,4.28,0,.52-.06,1.01-.17,1.45-.43,1.82-1.64,3.12-3.62,3.91-1.98.79-4.31,1.18-6.99,1.18-1.36,0-2.63-.08-3.81-.25-.03,1.43.38,2.44,1.21,3.02.84.58,2.01.87,3.51.87.69,0,1.36-.07,2-.23.64-.15,1.44-.38,2.43-.68.81-.28,1.36-.42,1.65-.42.32,0,.48.18.48.54.03.96-.35,1.98-1.13,3.04-.78,1.06-1.93,1.96-3.46,2.71-1.54.75-3.38,1.12-5.55,1.12-3.2,0-5.83-.77-7.88-2.32-2.05-1.54-3.07-3.79-3.07-6.74,0-.83.11-1.8.34-2.9.72-3.39,2.3-5.95,4.74-7.67,2.44-1.73,5.41-2.59,8.9-2.59,3.67,0,6.33.56,7.97,1.68M184.46,563.58c1.21,0,2.14-.54,2.77-1.61s.94-2.27.91-3.6c-.03-.77-.26-1.15-.69-1.15-.32,0-.69.24-1.13.72-.43.49-.86,1.21-1.28,2.18-.42.96-.77,2.11-1.06,3.43.12.03.28.04.48.04"/>
    <path class="st0" d="M227.68,570.27c-.06.12-.09.3-.09.53,0,.21.05.37.16.49.11.12.25.17.44.17.37,0,.68-.15.95-.47.26-.31.44-.46.53-.46.15,0,.28.1.37.29.1.19.14.42.14.68.03.86-.26,1.68-.88,2.49-.61.81-1.51,1.47-2.7,1.99s-2.61.77-4.27.77c-2.03,0-3.65-.45-4.85-1.35-1.2-.9-1.82-2.1-1.85-3.6,0-1.09.28-2.31.83-3.66l2.54-6.35c.15-.38.23-.69.23-.93,0-.38-.13-.68-.39-.91s-.58-.33-.95-.33c-.68,0-1.32.3-1.94.9-.62.6-1.06,1.35-1.34,2.23l-2.86,9c-.13.33-.19.64-.19.93,0,.35.07.64.23.86.16.22.37.45.65.68.21.17.37.34.46.49.09.15.11.32.04.53-.12.38-.41.66-.87.84-.47.17-1.19.26-2.17.26h-10.54c-.8,0-1.38-.13-1.73-.38s-.49-.58-.39-.99c.12-.35.45-.66.97-.93.46-.24.85-.51,1.15-.84.31-.32.57-.84.79-1.54l4.11-12.76c.06-.14.1-.35.1-.62,0-.32-.07-.57-.21-.75-.14-.17-.36-.4-.67-.66-.31-.24-.52-.44-.65-.62-.13-.17-.14-.41-.05-.7.19-.68,1.15-1.27,2.91-1.79,1.75-.51,3.58-.77,5.5-.77,1.54,0,2.75.4,3.65,1.21.89.81,1.3,1.93,1.2,3.37,1.27-1.74,2.61-2.93,4.02-3.6,1.42-.66,2.96-.99,4.62-.99,1.88,0,3.39.54,4.55,1.63,1.15,1.09,1.74,2.5,1.74,4.24,0,.91-.16,1.81-.47,2.69l-2.82,8.69Z"/>
    <path class="st0" d="M264.77,548.66c1.05.57,1.89,1.29,2.49,2.17.61.88.92,1.8.92,2.75,0,1.34-.39,2.5-1.17,3.47-.77.97-2.01,1.93-3.71,2.89l-11.76,6.67c1.11,1.2,2.2,1.8,3.27,1.8.85,0,1.61-.3,2.28-.9.66-.6,1.42-1.47,2.27-2.59.52-.67.91-1.15,1.17-1.43.26-.29.52-.42.77-.42.67,0,1.4.23,2.19.69.79.46,1.48,1.13,2.05,2.01.57.88.86,1.94.86,3.18s-.34,2.45-1.03,3.52c-.68,1.08-1.64,1.93-2.88,2.57s-2.69.95-4.36.95-2.99-.27-4.1-.82c-1.11-.55-1.97-1.15-2.58-1.83-.61-.67-1.21-1.46-1.81-2.38-.48-.81-.85-1.22-1.11-1.22-.22,0-.46.13-.69.37-.24.25-.58.67-1.03,1.27-1,1.38-2.02,2.49-3.08,3.34-1.05.85-2.43,1.27-4.13,1.27s-3.1-.28-4.41-.85c-1.31-.56-2.35-1.31-3.11-2.25-.76-.93-1.13-1.95-1.13-3.04,0-1.94,1.35-3.73,4.05-5.35l14.25-8.32c-.63-.74-1.19-1.27-1.66-1.59-.48-.32-1-.48-1.56-.48-.7,0-1.3.24-1.8.71-.5.48-1.01,1.14-1.52,1.99-.37.57-.67.99-.92,1.27-.24.29-.51.42-.8.42-1.14,0-2.14-.39-2.99-1.17-.85-.77-1.28-1.83-1.28-3.18,0-1.09.29-2.12.86-3.1.57-.97,1.39-1.76,2.44-2.36,1.05-.6,2.28-.9,3.69-.9,2.03,0,3.61.47,4.74,1.4s2.13,2.09,3.02,3.47c.51.78.87,1.17,1.05,1.17s.4-.11.64-.34c.24-.23.44-.46.61-.69.17-.23.31-.4.42-.5,1.11-1.38,2.18-2.47,3.21-3.28,1.04-.81,2.35-1.22,3.94-1.22,1.22,0,2.36.28,3.41.85"/>
    <path class="st0" d="M294.43,552.18c2.02,1.65,3.03,3.81,3.03,6.48,0,.9-.13,1.91-.38,3.01-.6,2.46-1.71,4.61-3.34,6.45-1.64,1.84-3.64,3.27-6,4.27-2.37,1-4.94,1.5-7.7,1.5-4.36,0-7.59-.83-9.68-2.49-2.09-1.66-3.13-3.88-3.13-6.63,0-.93.12-1.96.38-3.1.59-2.34,1.73-4.42,3.42-6.23,1.68-1.82,3.73-3.22,6.17-4.23,2.43-1,5.03-1.5,7.79-1.5,4.27,0,7.42.82,9.45,2.47M282.75,555.4c-.74,1.12-1.61,3.25-2.62,6.36-1,3.12-1.5,5.31-1.5,6.57,0,.66.11,1.1.33,1.33.22.22.52.33.89.33.66.06,1.35-.48,2.05-1.61.7-1.14,1.59-3.36,2.66-6.66.97-2.91,1.46-5.02,1.46-6.34,0-.63-.1-1.06-.31-1.3-.2-.24-.49-.36-.87-.36-.66,0-1.36.56-2.1,1.68"/>
    <path class="st0" d="M336.72,568.68c-.07.14-.11.35-.11.64,0,.25.06.44.2.58.13.14.3.21.52.21.44,0,.82-.19,1.14-.56.31-.37.52-.56.64-.56.19,0,.33.12.45.34.11.23.17.5.17.82.03,1.03-.32,2.02-1.05,2.99-.74.97-1.82,1.77-3.25,2.38-1.42.62-3.13.93-5.13.93-2.44,0-4.38-.53-5.82-1.61-1.44-1.07-2.18-2.52-2.21-4.32,0-1.31.33-2.77,1-4.39l3.05-7.63c.19-.46.28-.83.28-1.11,0-.46-.15-.82-.47-1.09-.31-.26-.69-.4-1.13-.4-.7,0-1.41.31-2.13.93-.73.62-1.31,1.61-1.75,3v-.11l-3.49,10.75c-.11.42-.17.79-.17,1.11,0,.46.1.82.28,1.09.19.27.44.52.77.77.26.25.44.45.56.61.11.16.13.37.06.61-.19.46-.56.79-1.11,1.01-.56.21-1.4.32-2.55.32h-12.64c-.96,0-1.67-.15-2.11-.45-.44-.3-.59-.69-.44-1.19.15-.42.53-.79,1.17-1.11.55-.28,1.02-.61,1.39-1.01.37-.39.68-1.01.94-1.85l8.44-26.43c.11-.32.16-.58.16-.79,0-.39-.1-.71-.31-.95-.2-.25-.47-.5-.81-.74-.37-.29-.64-.53-.8-.74-.16-.21-.19-.5-.08-.85.22-.81,1.39-1.51,3.49-2.11,2.11-.6,4.3-.91,6.6-.91,2.14,0,3.72.39,4.74,1.16,1.02.78,1.52,1.84,1.52,3.18,0,.77-.13,1.54-.39,2.28l-3,9.32c1.45-1.8,2.97-3.06,4.58-3.76,1.6-.7,3.35-1.06,5.24-1.06,2.26,0,4.08.65,5.46,1.96,1.39,1.31,2.08,3,2.08,5.08,0,1.1-.19,2.17-.56,3.23l-3.38,10.44Z"/>
    <path class="st0" d="M374.68,550.89c2.39,1.94,3.58,4.48,3.58,7.62,0,1.06-.15,2.25-.44,3.55-.7,2.89-2.02,5.43-3.94,7.6-1.92,2.17-4.28,3.85-7.07,5.03-2.79,1.19-5.81,1.77-9.07,1.77-5.14,0-8.94-.98-11.39-2.94-2.46-1.96-3.69-4.56-3.69-7.81,0-1.1.15-2.31.45-3.65.7-2.76,2.04-5.2,4.02-7.34,1.98-2.13,4.4-3.8,7.26-4.98,2.86-1.19,5.93-1.77,9.18-1.77,5.03,0,8.74.97,11.12,2.91M360.92,554.67c-.87,1.32-1.9,3.82-3.08,7.49-1.19,3.67-1.77,6.25-1.77,7.74,0,.78.13,1.3.39,1.56s.61.4,1.05.4c.78.07,1.58-.57,2.41-1.91.83-1.34,1.87-3.96,3.13-7.84,1.15-3.42,1.72-5.91,1.72-7.47,0-.74-.12-1.25-.36-1.54-.24-.28-.58-.42-1.03-.42-.78,0-1.6.66-2.47,1.99"/>
    <path class="st0" d="M411.42,568.68c-.07.28-.11.49-.11.64,0,.25.06.44.2.58.13.14.3.21.52.21.44,0,.82-.19,1.14-.56.31-.37.52-.56.64-.56.19,0,.34.12.47.34.13.23.2.5.2.82.04.99-.33,1.97-1.11,2.94-.77.97-1.86,1.77-3.27,2.41-1.41.64-2.98.95-4.72.95-2.18,0-3.92-.42-5.21-1.27-1.3-.85-2.13-1.96-2.49-3.34-1.33,1.41-2.8,2.48-4.41,3.2-1.61.73-3.25,1.09-4.91,1.09-2.59,0-4.76-.61-6.51-1.83-1.76-1.22-2.64-2.92-2.64-5.11,0-.99.19-2.01.56-3.07l3.55-11.07c.11-.32.16-.58.16-.79,0-.39-.09-.69-.28-.93-.19-.23-.46-.47-.83-.71-.37-.28-.63-.53-.78-.74-.15-.21-.16-.49-.05-.85.22-.81,1.39-1.52,3.49-2.14s4.3-.93,6.6-.93c2.14,0,3.72.39,4.71,1.16,1,.78,1.5,1.84,1.5,3.18,0,.82-.13,1.59-.39,2.33l-3.49,11.02c-.15.39-.22.76-.22,1.11,0,.49.15.86.44,1.11.3.25.68.37,1.16.37.7,0,1.28-.2,1.72-.58.44-.39.89-1.04,1.33-1.96l3.38-10.65c.11-.32.16-.58.16-.79,0-.39-.1-.69-.28-.93-.19-.23-.44-.47-.78-.71-.37-.28-.63-.53-.78-.74-.15-.21-.16-.49-.05-.85.19-.81,1.33-1.52,3.44-2.14s4.3-.93,6.6-.93c2.14,0,3.72.39,4.74,1.16,1.02.78,1.52,1.82,1.52,3.12,0,.67-.15,1.47-.44,2.38l-4.49,14.04Z"/>
    <path class="st0" d="M442.72,548.29c2.23.53,3.96,1.27,5.16,2.22,1.2.95,1.8,2.03,1.8,3.23s-.51,2.25-1.53,3.02c-1.02.77-2.43,1.17-4.24,1.17s-3.41-.44-4.69-1.33c-1.28-.88-1.91-1.99-1.91-3.34,0-.46.07-.9.22-1.32-.67-.17-1.26-.26-1.77-.26-.93,0-1.69.21-2.3.64-.61.42-.89,1.03-.86,1.8,0,.92.48,1.69,1.44,2.33.96.64,2.52,1.43,4.66,2.39,1.85.77,3.37,1.49,4.57,2.14,1.2.65,2.22,1.47,3.05,2.46.83.99,1.24,2.15,1.24,3.49,0,.28-.07.81-.22,1.59-.59,2.37-2.24,4.24-4.94,5.61-2.7,1.38-6.25,2.07-10.64,2.07-4.96,0-8.88-.64-11.79-1.91-2.9-1.27-4.35-3.02-4.35-5.24,0-1.52.48-2.66,1.44-3.44.96-.78,2.24-1.17,3.83-1.17,1.85,0,3.43.55,4.74,1.64,1.31,1.1,1.97,2.49,1.97,4.18,0,.46-.05.94-.16,1.43.88.21,1.74.32,2.55.32.96,0,1.75-.24,2.38-.74.62-.49.94-1.18.94-2.06-.04-.81-.47-1.51-1.28-2.09-.82-.58-2.11-1.28-3.88-2.09-1.66-.74-3.03-1.44-4.1-2.09-1.07-.66-1.99-1.48-2.75-2.46-.76-.99-1.13-2.15-1.13-3.5,0-2.89,1.27-5.19,3.8-6.91,2.53-1.71,6.13-2.57,10.79-2.57,3.07,0,5.72.26,7.96.79"/>
    <path class="st0" d="M478.41,549.85c2.11,1.43,3.16,3.26,3.16,5.48,0,.67-.07,1.29-.22,1.85-.56,2.33-2.1,4-4.63,5-2.54,1.01-5.52,1.51-8.96,1.51-1.74,0-3.36-.11-4.88-.32-.04,1.84.48,3.12,1.55,3.87,1.07.74,2.57,1.11,4.49,1.11.89,0,1.74-.1,2.55-.29.81-.19,1.85-.48,3.1-.87,1.04-.35,1.74-.53,2.11-.53.41,0,.61.23.61.69.04,1.24-.44,2.54-1.44,3.9-1,1.36-2.48,2.52-4.44,3.47s-4.33,1.43-7.1,1.43c-4.1,0-7.47-.99-10.09-2.97-2.63-1.98-3.94-4.86-3.94-8.64,0-1.06.15-2.29.44-3.71.92-4.34,2.95-7.62,6.07-9.82,3.12-2.21,6.92-3.31,11.39-3.31s8.1.71,10.2,2.15M463.88,560.26c1.55,0,2.74-.69,3.55-2.06.82-1.38,1.2-2.91,1.16-4.61-.04-.99-.33-1.48-.88-1.48-.41,0-.89.31-1.45.93-.55.61-1.1,1.55-1.64,2.78-.53,1.23-.99,2.7-1.36,4.39.15.04.35.05.61.05"/>
    <path class="st0" d="M494.47,570.79c0,3.06-2.48,5.54-5.54,5.54s-5.54-2.48-5.54-5.54,2.48-5.54,5.54-5.54,5.54,2.48,5.54,5.54"/>
  </g>
  <g>
    <path class="st0" d="M572.15,117.94c-.78,2.13-1.84,3.8-3.19,4.98-1.35,1.19-2.85,1.78-4.49,1.78-1.77,0-3.24-.64-4.38-1.92-1.15-1.28-1.73-3.01-1.73-5.19s.54-3.97,1.63-5.22c1.09-1.25,2.56-1.88,4.42-1.88.88,0,1.82.14,2.79.42-.49-1.95-1.45-3.68-2.89-5.19-1.44-1.51-3.34-2.52-5.69-3.03-1.33-.28-2.53-.42-3.59-.42-2.39,0-4.21.7-5.45,2.09-1.24,1.39-1.86,3.39-1.86,5.99,0,1.48.14,2.76.43,3.83.29,1.06.68,2.15,1.17,3.27.44.93.67,1.6.67,2.02,0,.28-.06.47-.17.56-.11.1-.34.14-.7.14-1.64.05-3.36-.66-5.15-2.12s-3.3-3.48-4.52-6.06c-1.22-2.58-1.83-5.46-1.83-8.67s.58-6.3,1.76-8.88c1.18-2.57,2.86-4.57,5.06-5.99,2.19-1.41,4.76-2.12,7.68-2.12,1.37,0,2.9.19,4.59.56,5.5,1.25,9.64,4.03,12.43,8.32,2.8,4.29,4.19,9.39,4.19,15.28,0,2.83-.39,5.32-1.16,7.45"/>
    <path class="st0" d="M562.86,153.05c-1.94,2.39-4.48,3.58-7.62,3.58-1.06,0-2.25-.15-3.55-.44-2.89-.7-5.43-2.02-7.6-3.94-2.17-1.92-3.85-4.28-5.03-7.07-1.19-2.79-1.77-5.81-1.77-9.07,0-5.14.98-8.94,2.94-11.39,1.96-2.46,4.56-3.69,7.81-3.69,1.1,0,2.31.15,3.65.45,2.76.7,5.2,2.04,7.34,4.02,2.13,1.98,3.8,4.4,4.98,7.26,1.19,2.86,1.77,5.93,1.77,9.18,0,5.03-.97,8.74-2.91,11.12M559.08,139.3c-1.32-.87-3.82-1.9-7.49-3.08-3.67-1.19-6.25-1.77-7.74-1.77-.78,0-1.3.13-1.56.39s-.4.61-.4,1.05c-.07.78.57,1.58,1.91,2.41,1.34.83,3.96,1.87,7.84,3.13,3.42,1.15,5.91,1.72,7.47,1.72.74,0,1.25-.12,1.54-.36.28-.24.42-.58.42-1.03,0-.78-.66-1.6-1.99-2.47"/>
    <path class="st0" d="M571.15,202.02c-1.07,1.11-2.41,1.67-3.99,1.67-.6,0-1.16-.07-1.66-.2-1.3-.33-2.3-.96-2.99-1.89-.7-.93-1.05-2.04-1.05-3.33s.29-2.21.86-2.86c.57-.65,1.33-1.22,2.28-1.72.54-.26,1.05-1.28,1.19-1.59,1.66-3.94-6.88-18.52-6.98-18.68-.16-.28-.4-.54-.65-.79-.25-.25-.7-.47-1.33-.67l-11.87-3.83c-.16-.07-.4-.1-.71-.1-.41,0-.75.13-1.02.38-.27.25-.53.59-.79,1.02-.25.4-.46.66-.61.8-.16.13-.37.18-.62.15-.41-.07-.71-.31-.9-.72-.19-.42-.29-1.12-.29-2.12v-12.73c0-.86.13-1.48.4-1.86.27-.38.63-.52,1.07-.42.38.13.71.48,1,1.04.25.5.56.92.91,1.24.35.33.9.61,1.66.85l13.72,4.43c.16.06.38.1.67.1.34,0,.61-.07.8-.22.19-.15.43-.39.71-.72.25-.33.47-.57.66-.7.19-.13.45-.15.76-.05.73.2,1.37,1.24,1.92,3.13s.83,3.86.83,5.91c0,1.36-.29,2.49-.88,3.38-.59.89-1.42,1.48-2.49,1.74,3.37,1.22,11,22.33,11,24.91,0,1.86-.54,3.34-1.61,4.45"/>
    <path class="st0" d="M558.14,195.81c-1.12,1.65-2.54,2.47-4.28,2.47-.52,0-1.01-.06-1.45-.17-1.82-.43-3.12-1.64-3.91-3.62-.79-1.98-1.18-4.31-1.18-6.99,0-1.36.08-2.63.25-3.81-1.43-.03-2.44.38-3.02,1.21-.58.84-.87,2.01-.87,3.51,0,.69.07,1.36.23,2,.15.64.38,1.44.68,2.43.28.81.42,1.36.42,1.65,0,.32-.18.48-.54.48-.96.03-1.98-.35-3.04-1.13-1.06-.78-1.96-1.93-2.71-3.46-.75-1.54-1.12-3.38-1.12-5.55,0-3.2.77-5.83,2.32-7.88,1.54-2.05,3.79-3.07,6.74-3.07.83,0,1.8.11,2.9.34,3.39.72,5.95,2.3,7.67,4.74,1.73,2.44,2.59,5.41,2.59,8.9,0,3.67-.56,6.33-1.68,7.97M550.01,184.46c0,1.21.54,2.14,1.61,2.77s2.27.94,3.6.91c.77-.03,1.15-.26,1.15-.69,0-.32-.24-.69-.72-1.13-.49-.43-1.21-.86-2.18-1.28-.96-.42-2.11-.77-3.43-1.06-.03.12-.04.28-.04.48"/>
    <path class="st0" d="M543.33,227.68c-.12-.06-.3-.09-.53-.09-.21,0-.37.05-.49.16-.12.11-.17.25-.17.44,0,.37.15.68.47.95.31.26.46.44.46.53,0,.15-.1.28-.29.37-.19.1-.42.14-.68.14-.86.03-1.68-.26-2.49-.88-.81-.61-1.47-1.51-1.99-2.7s-.77-2.61-.77-4.27c0-2.03.45-3.65,1.35-4.85.9-1.2,2.1-1.82,3.6-1.85,1.09,0,2.31.28,3.66.83l6.35,2.54c.38.15.69.23.93.23.38,0,.68-.13.91-.39s.33-.58.33-.95c0-.68-.3-1.32-.9-1.94-.6-.62-1.35-1.06-2.23-1.34l-9-2.86c-.33-.13-.64-.19-.93-.19-.35,0-.64.07-.86.23-.22.16-.45.37-.68.65-.17.21-.34.37-.49.46-.15.09-.32.11-.53.04-.38-.12-.66-.41-.84-.87-.17-.47-.26-1.19-.26-2.17v-10.54c0-.8.13-1.38.38-1.73s.58-.49.99-.39c.35.12.66.45.93.97.24.46.51.85.84,1.15.32.31.84.57,1.54.79l12.76,4.11c.14.06.35.1.62.1.32,0,.57-.07.75-.21.17-.14.4-.36.66-.67.24-.31.44-.52.62-.65.17-.13.41-.14.7-.05.68.19,1.27,1.15,1.79,2.91.51,1.75.77,3.58.77,5.5,0,1.54-.4,2.75-1.21,3.65-.81.89-1.93,1.3-3.37,1.2,1.74,1.27,2.93,2.61,3.6,4.02.66,1.42.99,2.96.99,4.62,0,1.88-.54,3.39-1.63,4.55-1.09,1.15-2.5,1.74-4.24,1.74-.91,0-1.81-.16-2.69-.47l-8.69-2.82Z"/>
    <path class="st0" d="M564.93,264.78c-.57,1.05-1.29,1.89-2.17,2.49-.88.61-1.8.92-2.75.92-1.34,0-2.5-.39-3.47-1.17-.97-.77-1.93-2.01-2.89-3.71l-6.67-11.76c-1.2,1.11-1.8,2.2-1.8,3.27,0,.85.3,1.61.9,2.28.6.66,1.47,1.42,2.59,2.27.67.52,1.15.91,1.43,1.17.29.26.42.52.42.77,0,.67-.23,1.4-.69,2.19-.46.79-1.13,1.48-2.01,2.05-.88.57-1.94.86-3.18.86s-2.45-.34-3.52-1.03c-1.08-.68-1.93-1.64-2.57-2.88s-.95-2.69-.95-4.36.27-2.99.82-4.1c.55-1.11,1.15-1.97,1.83-2.58.67-.61,1.46-1.21,2.38-1.81.81-.48,1.22-.85,1.22-1.11,0-.22-.13-.46-.37-.69-.25-.24-.67-.58-1.27-1.03-1.38-1-2.49-2.02-3.34-3.08-.85-1.05-1.27-2.43-1.27-4.13s.28-3.1.85-4.41c.56-1.31,1.31-2.35,2.25-3.11.93-.76,1.95-1.13,3.04-1.13,1.94,0,3.73,1.35,5.35,4.05l8.32,14.25c.74-.63,1.27-1.19,1.59-1.66.32-.48.48-1,.48-1.56,0-.7-.24-1.3-.71-1.8-.48-.5-1.14-1.01-1.99-1.52-.57-.37-.99-.67-1.27-.92-.29-.24-.42-.51-.42-.8,0-1.14.39-2.14,1.17-2.99.77-.85,1.83-1.28,3.18-1.28,1.09,0,2.12.29,3.1.86.97.57,1.76,1.39,2.36,2.44.6,1.05.9,2.28.9,3.69,0,2.03-.47,3.61-1.4,4.74s-2.09,2.13-3.47,3.02c-.78.51-1.17.87-1.17,1.05s.11.4.34.64c.23.24.46.44.69.61.23.17.4.31.5.42,1.38,1.11,2.47,2.18,3.28,3.21.81,1.04,1.22,2.35,1.22,3.94,0,1.22-.28,2.36-.85,3.41"/>
    <path class="st0" d="M561.41,294.44c-1.65,2.02-3.81,3.03-6.48,3.03-.9,0-1.91-.13-3.01-.38-2.46-.6-4.61-1.71-6.45-3.34-1.84-1.64-3.27-3.64-4.27-6-1-2.37-1.5-4.94-1.5-7.7,0-4.36.83-7.59,2.49-9.68,1.66-2.09,3.88-3.13,6.63-3.13.93,0,1.96.12,3.1.38,2.34.59,4.42,1.73,6.23,3.42,1.82,1.68,3.22,3.73,4.23,6.17,1,2.43,1.5,5.03,1.5,7.79,0,4.27-.82,7.42-2.47,9.45M558.2,282.75c-1.12-.74-3.25-1.61-6.36-2.62-3.12-1-5.31-1.5-6.57-1.5-.66,0-1.1.11-1.33.33-.22.22-.33.52-.33.89-.06.66.48,1.35,1.61,2.05,1.14.7,3.36,1.59,6.66,2.66,2.91.97,5.02,1.46,6.34,1.46.63,0,1.06-.1,1.3-.31.24-.2.36-.49.36-.87,0-.66-.56-1.36-1.68-2.1"/>
    <path class="st0" d="M544.91,336.73c-.14-.07-.35-.11-.64-.11-.25,0-.44.06-.58.2-.14.13-.21.3-.21.52,0,.44.19.82.56,1.14.37.31.56.52.56.64,0,.19-.12.33-.34.45-.23.11-.5.17-.82.17-1.03.03-2.02-.32-2.99-1.05-.97-.74-1.77-1.82-2.38-3.25-.62-1.42-.93-3.13-.93-5.13,0-2.44.53-4.38,1.61-5.82,1.07-1.44,2.52-2.18,4.32-2.21,1.31,0,2.77.33,4.39,1l7.63,3.05c.46.19.83.28,1.11.28.46,0,.82-.15,1.09-.47.26-.31.4-.69.4-1.13,0-.7-.31-1.41-.93-2.13-.62-.73-1.61-1.31-3-1.75h.11l-10.75-3.49c-.42-.11-.79-.17-1.11-.17-.46,0-.82.1-1.09.28-.27.19-.52.44-.77.77-.25.26-.45.44-.61.56-.16.11-.37.13-.61.06-.46-.19-.79-.56-1.01-1.11-.21-.56-.32-1.4-.32-2.55v-12.64c0-.96.15-1.67.45-2.11.3-.44.69-.59,1.19-.44.42.15.79.53,1.11,1.17.28.55.61,1.02,1.01,1.39.39.37,1.01.68,1.85.94l26.43,8.44c.32.11.58.16.79.16.39,0,.71-.1.95-.31.25-.2.5-.47.74-.81.29-.37.53-.64.74-.8.21-.16.5-.19.85-.08.81.22,1.51,1.39,2.11,3.49.6,2.11.91,4.3.91,6.6,0,2.14-.39,3.72-1.16,4.74-.78,1.02-1.84,1.52-3.18,1.52-.77,0-1.54-.13-2.28-.39l-9.32-3c1.8,1.45,3.06,2.97,3.76,4.58.7,1.6,1.06,3.35,1.06,5.24,0,2.26-.65,4.08-1.96,5.46-1.31,1.39-3,2.08-5.08,2.08-1.1,0-2.17-.19-3.23-.56l-10.44-3.38Z"/>
    <path class="st0" d="M562.71,374.68c-1.94,2.39-4.48,3.58-7.62,3.58-1.06,0-2.25-.15-3.55-.44-2.89-.7-5.43-2.02-7.6-3.94-2.17-1.92-3.85-4.28-5.03-7.07-1.19-2.79-1.77-5.81-1.77-9.07,0-5.14.98-8.94,2.94-11.39,1.96-2.46,4.56-3.69,7.81-3.69,1.1,0,2.31.15,3.65.45,2.76.7,5.2,2.04,7.34,4.02,2.13,1.98,3.8,4.4,4.98,7.26,1.19,2.86,1.77,5.93,1.77,9.18,0,5.03-.97,8.74-2.91,11.12M558.92,360.93c-1.32-.87-3.82-1.9-7.49-3.08-3.67-1.19-6.25-1.77-7.74-1.77-.78,0-1.3.13-1.56.39s-.4.61-.4,1.05c-.07.78.57,1.58,1.91,2.41,1.34.83,3.96,1.87,7.84,3.13,3.42,1.15,5.91,1.72,7.47,1.72.74,0,1.25-.12,1.54-.36.28-.24.42-.58.42-1.03,0-.78-.66-1.6-1.99-2.47"/>
    <path class="st0" d="M544.91,411.42c-.28-.07-.49-.11-.64-.11-.25,0-.44.06-.58.2-.14.13-.21.3-.21.52,0,.44.19.82.56,1.14.37.31.56.52.56.64,0,.19-.12.34-.34.47-.23.13-.5.2-.82.2-.99.04-1.97-.33-2.94-1.11-.97-.77-1.77-1.86-2.41-3.27-.64-1.41-.95-2.98-.95-4.72,0-2.18.42-3.92,1.27-5.21.85-1.3,1.96-2.13,3.34-2.49-1.41-1.33-2.48-2.8-3.2-4.41-.73-1.61-1.09-3.25-1.09-4.91,0-2.59.61-4.76,1.83-6.51,1.22-1.76,2.92-2.64,5.11-2.64.99,0,2.01.19,3.07.56l11.07,3.55c.32.11.58.16.79.16.39,0,.69-.09.93-.28.23-.19.47-.46.71-.83.28-.37.53-.63.74-.78.21-.15.49-.16.85-.05.81.22,1.52,1.39,2.14,3.49.62,2.11.93,4.3.93,6.6,0,2.14-.39,3.72-1.16,4.71-.78,1-1.84,1.5-3.18,1.5-.82,0-1.59-.13-2.33-.39l-11.02-3.49c-.39-.15-.76-.22-1.11-.22-.49,0-.86.15-1.11.44-.25.3-.37.68-.37,1.16,0,.7.2,1.28.58,1.72.39.44,1.04.89,1.96,1.33l10.65,3.38c.32.11.58.16.79.16.39,0,.69-.1.93-.28.23-.19.47-.44.71-.78.28-.37.53-.63.74-.78.21-.15.49-.16.85-.05.81.19,1.52,1.33,2.14,3.44.62,2.11.93,4.3.93,6.6,0,2.14-.39,3.72-1.16,4.74-.78,1.02-1.82,1.52-3.12,1.52-.67,0-1.47-.15-2.38-.44l-14.04-4.49Z"/>
    <path class="st0" d="M565.3,442.73c-.53,2.23-1.27,3.96-2.22,5.16-.95,1.2-2.03,1.8-3.23,1.8s-2.25-.51-3.02-1.53c-.77-1.02-1.17-2.43-1.17-4.24s.44-3.41,1.33-4.69c.88-1.28,1.99-1.91,3.34-1.91.46,0,.9.07,1.32.22.17-.67.26-1.26.26-1.77,0-.93-.21-1.69-.64-2.3-.42-.61-1.03-.89-1.8-.86-.92,0-1.69.48-2.33,1.44-.64.96-1.43,2.52-2.39,4.66-.77,1.85-1.49,3.37-2.14,4.57-.65,1.2-1.47,2.22-2.46,3.05-.99.83-2.15,1.24-3.49,1.24-.28,0-.81-.07-1.59-.22-2.37-.59-4.24-2.24-5.61-4.94-1.38-2.7-2.07-6.25-2.07-10.64,0-4.96.64-8.88,1.91-11.79,1.27-2.9,3.02-4.35,5.24-4.35,1.52,0,2.66.48,3.44,1.44.78.96,1.17,2.24,1.17,3.83,0,1.85-.55,3.43-1.64,4.74-1.1,1.31-2.49,1.97-4.18,1.97-.46,0-.94-.05-1.43-.16-.21.88-.32,1.74-.32,2.55,0,.96.24,1.75.74,2.38.49.62,1.18.94,2.06.94.81-.04,1.51-.47,2.09-1.28.58-.82,1.28-2.11,2.09-3.88.74-1.66,1.44-3.03,2.09-4.1.66-1.07,1.48-1.99,2.46-2.75.99-.76,2.15-1.13,3.5-1.13,2.89,0,5.19,1.27,6.91,3.8,1.71,2.53,2.57,6.13,2.57,10.79,0,3.07-.26,5.72-.79,7.96"/>
    <path class="st0" d="M563.74,478.41c-1.43,2.11-3.26,3.16-5.48,3.16-.67,0-1.29-.07-1.85-.22-2.33-.56-4-2.1-5-4.63-1.01-2.54-1.51-5.52-1.51-8.96,0-1.74.11-3.36.32-4.88-1.84-.04-3.12.48-3.87,1.55-.74,1.07-1.11,2.57-1.11,4.49,0,.89.1,1.74.29,2.55.19.81.48,1.85.87,3.1.35,1.04.53,1.74.53,2.11,0,.41-.23.61-.69.61-1.24.04-2.54-.44-3.9-1.44-1.36-1-2.52-2.48-3.47-4.44s-1.43-4.33-1.43-7.1c0-4.1.99-7.47,2.97-10.09,1.98-2.63,4.86-3.94,8.64-3.94,1.06,0,2.29.15,3.71.44,4.34.92,7.62,2.95,9.82,6.07,2.21,3.12,3.31,6.92,3.31,11.39s-.71,8.1-2.15,10.2M553.33,463.88c0,1.55.69,2.74,2.06,3.55,1.38.82,2.91,1.2,4.61,1.16.99-.04,1.48-.33,1.48-.88,0-.41-.31-.89-.93-1.45-.61-.55-1.55-1.1-2.78-1.64-1.23-.53-2.7-.99-4.39-1.36-.04.15-.05.35-.05.61"/>
    <path class="st0" d="M542.81,494.48c-3.06,0-5.54-2.48-5.54-5.54s2.48-5.54,5.54-5.54,5.54,2.48,5.54,5.54-2.48,5.54-5.54,5.54"/>
  </g>
  <g>
    <path class="st0" d="M39.36,117.94c-.78,2.13-1.84,3.8-3.19,4.98-1.35,1.19-2.85,1.78-4.49,1.78-1.77,0-3.24-.64-4.38-1.92-1.15-1.28-1.73-3.01-1.73-5.19s.54-3.97,1.63-5.22c1.09-1.25,2.56-1.88,4.42-1.88.88,0,1.82.14,2.79.42-.49-1.95-1.45-3.68-2.89-5.19-1.44-1.51-3.34-2.52-5.69-3.03-1.33-.28-2.53-.42-3.59-.42-2.39,0-4.21.7-5.45,2.09-1.24,1.39-1.86,3.39-1.86,5.99,0,1.48.14,2.76.43,3.83.29,1.06.68,2.15,1.17,3.27.44.93.67,1.6.67,2.02,0,.28-.06.47-.17.56-.11.1-.34.14-.7.14-1.64.05-3.36-.66-5.15-2.12s-3.3-3.48-4.52-6.06c-1.22-2.58-1.83-5.46-1.83-8.67s.58-6.3,1.76-8.88c1.18-2.57,2.86-4.57,5.06-5.99,2.19-1.41,4.76-2.12,7.68-2.12,1.37,0,2.9.19,4.59.56,5.5,1.25,9.64,4.03,12.43,8.32,2.8,4.29,4.19,9.39,4.19,15.28,0,2.83-.39,5.32-1.16,7.45"/>
    <path class="st0" d="M30.07,153.05c-1.94,2.39-4.48,3.58-7.62,3.58-1.06,0-2.25-.15-3.55-.44-2.89-.7-5.43-2.02-7.6-3.94-2.17-1.92-3.85-4.28-5.03-7.07-1.19-2.79-1.77-5.81-1.77-9.07,0-5.14.98-8.94,2.94-11.39,1.96-2.46,4.56-3.69,7.81-3.69,1.1,0,2.31.15,3.65.45,2.76.7,5.2,2.04,7.34,4.02,2.13,1.98,3.8,4.4,4.98,7.26,1.19,2.86,1.77,5.93,1.77,9.18,0,5.03-.97,8.74-2.91,11.12M26.29,139.3c-1.32-.87-3.82-1.9-7.49-3.08-3.67-1.19-6.25-1.77-7.74-1.77-.78,0-1.3.13-1.56.39s-.4.61-.4,1.05c-.07.78.57,1.58,1.91,2.41,1.34.83,3.96,1.87,7.84,3.13,3.42,1.15,5.91,1.72,7.47,1.72.74,0,1.25-.12,1.54-.36.28-.24.42-.58.42-1.03,0-.78-.66-1.6-1.99-2.47"/>
    <path class="st0" d="M38.36,202.02c-1.07,1.11-2.41,1.67-3.99,1.67-.6,0-1.16-.07-1.66-.2-1.3-.33-2.3-.96-2.99-1.89-.7-.93-1.05-2.04-1.05-3.33s.29-2.21.86-2.86c.57-.65,1.33-1.22,2.28-1.72.54-.26,1.05-1.28,1.19-1.59,1.66-3.94-6.88-18.52-6.98-18.68-.16-.28-.4-.54-.65-.79-.25-.25-.7-.47-1.33-.67l-11.87-3.83c-.16-.07-.4-.1-.71-.1-.41,0-.75.13-1.02.38-.27.25-.53.59-.79,1.02-.25.4-.46.66-.61.8-.16.13-.37.18-.62.15-.41-.07-.71-.31-.9-.72-.19-.42-.29-1.12-.29-2.12v-12.73c0-.86.13-1.48.4-1.86.27-.38.63-.52,1.07-.42.38.13.71.48,1,1.04.25.5.56.92.91,1.24.35.33.9.61,1.66.85l13.72,4.43c.16.06.38.1.67.1.34,0,.61-.07.8-.22.19-.15.43-.39.71-.72.25-.33.47-.57.66-.7.19-.13.45-.15.76-.05.73.2,1.37,1.24,1.92,3.13s.83,3.86.83,5.91c0,1.36-.29,2.49-.88,3.38-.59.89-1.42,1.48-2.49,1.74,3.37,1.22,11,22.33,11,24.91,0,1.86-.54,3.34-1.61,4.45"/>
    <path class="st0" d="M25.35,195.81c-1.12,1.65-2.54,2.47-4.28,2.47-.52,0-1.01-.06-1.45-.17-1.82-.43-3.12-1.64-3.91-3.62-.79-1.98-1.18-4.31-1.18-6.99,0-1.36.08-2.63.25-3.81-1.43-.03-2.44.38-3.02,1.21-.58.84-.87,2.01-.87,3.51,0,.69.07,1.36.23,2,.15.64.38,1.44.68,2.43.28.81.42,1.36.42,1.65,0,.32-.18.48-.54.48-.96.03-1.98-.35-3.04-1.13-1.06-.78-1.96-1.93-2.71-3.46-.75-1.54-1.12-3.38-1.12-5.55,0-3.2.77-5.83,2.32-7.88,1.54-2.05,3.79-3.07,6.74-3.07.83,0,1.8.11,2.9.34,3.39.72,5.95,2.3,7.67,4.74,1.73,2.44,2.59,5.41,2.59,8.9,0,3.67-.56,6.33-1.68,7.97M17.22,184.46c0,1.21.54,2.14,1.61,2.77s2.27.94,3.6.91c.77-.03,1.15-.26,1.15-.69,0-.32-.24-.69-.72-1.13-.49-.43-1.21-.86-2.18-1.28-.96-.42-2.11-.77-3.43-1.06-.03.12-.04.28-.04.48"/>
    <path class="st0" d="M10.54,227.68c-.12-.06-.3-.09-.53-.09-.21,0-.37.05-.49.16-.12.11-.17.25-.17.44,0,.37.15.68.47.95.31.26.46.44.46.53,0,.15-.1.28-.29.37-.19.1-.42.14-.68.14-.86.03-1.68-.26-2.49-.88-.81-.61-1.47-1.51-1.99-2.7s-.77-2.61-.77-4.27c0-2.03.45-3.65,1.35-4.85.9-1.2,2.1-1.82,3.6-1.85,1.09,0,2.31.28,3.66.83l6.35,2.54c.38.15.69.23.93.23.38,0,.68-.13.91-.39s.33-.58.33-.95c0-.68-.3-1.32-.9-1.94-.6-.62-1.35-1.06-2.23-1.34l-9-2.86c-.33-.13-.64-.19-.93-.19-.35,0-.64.07-.86.23-.22.16-.45.37-.68.65-.17.21-.34.37-.49.46-.15.09-.32.11-.53.04-.38-.12-.66-.41-.84-.87-.17-.47-.26-1.19-.26-2.17v-10.54c0-.8.13-1.38.38-1.73s.58-.49.99-.39c.35.12.66.45.93.97.24.46.51.85.84,1.15.32.31.84.57,1.54.79l12.76,4.11c.14.06.35.1.62.1.32,0,.57-.07.75-.21.17-.14.4-.36.66-.67.24-.31.44-.52.62-.65.17-.13.41-.14.7-.05.68.19,1.27,1.15,1.79,2.91.51,1.75.77,3.58.77,5.5,0,1.54-.4,2.75-1.21,3.65-.81.89-1.93,1.3-3.37,1.2,1.74,1.27,2.93,2.61,3.6,4.02.66,1.42.99,2.96.99,4.62,0,1.88-.54,3.39-1.63,4.55-1.09,1.15-2.5,1.74-4.24,1.74-.91,0-1.81-.16-2.69-.47l-8.69-2.82Z"/>
    <path class="st0" d="M32.14,264.78c-.57,1.05-1.29,1.89-2.17,2.49-.88.61-1.8.92-2.75.92-1.34,0-2.5-.39-3.47-1.17-.97-.77-1.93-2.01-2.89-3.71l-6.67-11.76c-1.2,1.11-1.8,2.2-1.8,3.27,0,.85.3,1.61.9,2.28.6.66,1.47,1.42,2.59,2.27.67.52,1.15.91,1.43,1.17.29.26.42.52.42.77,0,.67-.23,1.4-.69,2.19-.46.79-1.13,1.48-2.01,2.05-.88.57-1.94.86-3.18.86s-2.45-.34-3.52-1.03c-1.08-.68-1.93-1.64-2.57-2.88s-.95-2.69-.95-4.36.27-2.99.82-4.1c.55-1.11,1.15-1.97,1.83-2.58.67-.61,1.46-1.21,2.38-1.81.81-.48,1.22-.85,1.22-1.11,0-.22-.13-.46-.37-.69-.25-.24-.67-.58-1.27-1.03-1.38-1-2.49-2.02-3.34-3.08-.85-1.05-1.27-2.43-1.27-4.13s.28-3.1.85-4.41c.56-1.31,1.31-2.35,2.25-3.11.93-.76,1.95-1.13,3.04-1.13,1.94,0,3.73,1.35,5.35,4.05l8.32,14.25c.74-.63,1.27-1.19,1.59-1.66.32-.48.48-1,.48-1.56,0-.7-.24-1.3-.71-1.8-.48-.5-1.14-1.01-1.99-1.52-.57-.37-.99-.67-1.27-.92-.29-.24-.42-.51-.42-.8,0-1.14.39-2.14,1.17-2.99.77-.85,1.83-1.28,3.18-1.28,1.09,0,2.12.29,3.1.86.97.57,1.76,1.39,2.36,2.44.6,1.05.9,2.28.9,3.69,0,2.03-.47,3.61-1.4,4.74s-2.09,2.13-3.47,3.02c-.78.51-1.17.87-1.17,1.05s.11.4.34.64c.23.24.46.44.69.61.23.17.4.31.5.42,1.38,1.11,2.47,2.18,3.28,3.21.81,1.04,1.22,2.35,1.22,3.94,0,1.22-.28,2.36-.85,3.41"/>
    <path class="st0" d="M28.62,294.44c-1.65,2.02-3.81,3.03-6.48,3.03-.9,0-1.91-.13-3.01-.38-2.46-.6-4.61-1.71-6.45-3.34-1.84-1.64-3.27-3.64-4.27-6-1-2.37-1.5-4.94-1.5-7.7,0-4.36.83-7.59,2.49-9.68,1.66-2.09,3.88-3.13,6.63-3.13.93,0,1.96.12,3.1.38,2.34.59,4.42,1.73,6.23,3.42,1.82,1.68,3.22,3.73,4.23,6.17,1,2.43,1.5,5.03,1.5,7.79,0,4.27-.82,7.42-2.47,9.45M25.41,282.75c-1.12-.74-3.25-1.61-6.36-2.62-3.12-1-5.31-1.5-6.57-1.5-.66,0-1.1.11-1.33.33-.22.22-.33.52-.33.89-.06.66.48,1.35,1.61,2.05,1.14.7,3.36,1.59,6.66,2.66,2.91.97,5.02,1.46,6.34,1.46.63,0,1.06-.1,1.3-.31.24-.2.36-.49.36-.87,0-.66-.56-1.36-1.68-2.1"/>
    <path class="st0" d="M12.12,336.73c-.14-.07-.35-.11-.64-.11-.25,0-.44.06-.58.2-.14.13-.21.3-.21.52,0,.44.19.82.56,1.14.37.31.56.52.56.64,0,.19-.12.33-.34.45-.23.11-.5.17-.82.17-1.03.03-2.02-.32-2.99-1.05-.97-.74-1.77-1.82-2.38-3.25-.62-1.42-.93-3.13-.93-5.13,0-2.44.53-4.38,1.61-5.82,1.07-1.44,2.52-2.18,4.32-2.21,1.31,0,2.77.33,4.39,1l7.63,3.05c.46.19.83.28,1.11.28.46,0,.82-.15,1.09-.47.26-.31.4-.69.4-1.13,0-.7-.31-1.41-.93-2.13-.62-.73-1.61-1.31-3-1.75h.11l-10.75-3.49c-.42-.11-.79-.17-1.11-.17-.46,0-.82.1-1.09.28-.27.19-.52.44-.77.77-.25.26-.45.44-.61.56-.16.11-.37.13-.61.06-.46-.19-.79-.56-1.01-1.11-.21-.56-.32-1.4-.32-2.55v-12.64c0-.96.15-1.67.45-2.11.3-.44.69-.59,1.19-.44.42.15.79.53,1.11,1.17.28.55.61,1.02,1.01,1.39.39.37,1.01.68,1.85.94l26.43,8.44c.32.11.58.16.79.16.39,0,.71-.1.95-.31.25-.2.5-.47.74-.81.29-.37.53-.64.74-.8.21-.16.5-.19.85-.08.81.22,1.51,1.39,2.11,3.49.6,2.11.91,4.3.91,6.6,0,2.14-.39,3.72-1.16,4.74-.78,1.02-1.84,1.52-3.18,1.52-.77,0-1.54-.13-2.28-.39l-9.32-3c1.8,1.45,3.06,2.97,3.76,4.58.7,1.6,1.06,3.35,1.06,5.24,0,2.26-.65,4.08-1.96,5.46-1.31,1.39-3,2.08-5.08,2.08-1.1,0-2.17-.19-3.23-.56l-10.44-3.38Z"/>
    <path class="st0" d="M29.92,374.68c-1.94,2.39-4.48,3.58-7.62,3.58-1.06,0-2.25-.15-3.55-.44-2.89-.7-5.43-2.02-7.6-3.94-2.17-1.92-3.85-4.28-5.03-7.07-1.19-2.79-1.77-5.81-1.77-9.07,0-5.14.98-8.94,2.94-11.39,1.96-2.46,4.56-3.69,7.81-3.69,1.1,0,2.31.15,3.65.45,2.76.7,5.2,2.04,7.34,4.02,2.13,1.98,3.8,4.4,4.98,7.26,1.19,2.86,1.77,5.93,1.77,9.18,0,5.03-.97,8.74-2.91,11.12M26.13,360.93c-1.32-.87-3.82-1.9-7.49-3.08-3.67-1.19-6.25-1.77-7.74-1.77-.78,0-1.3.13-1.56.39s-.4.61-.4,1.05c-.07.78.57,1.58,1.91,2.41,1.34.83,3.96,1.87,7.84,3.13,3.42,1.15,5.91,1.72,7.47,1.72.74,0,1.25-.12,1.54-.36.28-.24.42-.58.42-1.03,0-.78-.66-1.6-1.99-2.47"/>
    <path class="st0" d="M12.12,411.42c-.28-.07-.49-.11-.64-.11-.25,0-.44.06-.58.2-.14.13-.21.3-.21.52,0,.44.19.82.56,1.14.37.31.56.52.56.64,0,.19-.12.34-.34.47-.23.13-.5.2-.82.2-.99.04-1.97-.33-2.94-1.11-.97-.77-1.77-1.86-2.41-3.27-.64-1.41-.95-2.98-.95-4.72,0-2.18.42-3.92,1.27-5.21.85-1.3,1.96-2.13,3.34-2.49-1.41-1.33-2.48-2.8-3.2-4.41-.73-1.61-1.09-3.25-1.09-4.91,0-2.59.61-4.76,1.83-6.51,1.22-1.76,2.92-2.64,5.11-2.64.99,0,2.01.19,3.07.56l11.07,3.55c.32.11.58.16.79.16.39,0,.69-.09.93-.28.23-.19.47-.46.71-.83.28-.37.53-.63.74-.78.21-.15.49-.16.85-.05.81.22,1.52,1.39,2.14,3.49s.93,4.3.93,6.6c0,2.14-.39,3.72-1.16,4.71-.78,1-1.84,1.5-3.18,1.5-.82,0-1.59-.13-2.33-.39l-11.02-3.49c-.39-.15-.76-.22-1.11-.22-.49,0-.86.15-1.11.44-.25.3-.37.68-.37,1.16,0,.7.2,1.28.58,1.72.39.44,1.04.89,1.96,1.33l10.65,3.38c.32.11.58.16.79.16.39,0,.69-.1.93-.28.23-.19.47-.44.71-.78.28-.37.53-.63.74-.78.21-.15.49-.16.85-.05.81.19,1.52,1.33,2.14,3.44s.93,4.3.93,6.6c0,2.14-.39,3.72-1.16,4.74-.78,1.02-1.82,1.52-3.12,1.52-.67,0-1.47-.15-2.38-.44l-14.04-4.49Z"/>
    <path class="st0" d="M32.51,442.73c-.53,2.23-1.27,3.96-2.22,5.16-.95,1.2-2.03,1.8-3.23,1.8s-2.25-.51-3.02-1.53c-.77-1.02-1.17-2.43-1.17-4.24s.44-3.41,1.33-4.69c.88-1.28,1.99-1.91,3.34-1.91.46,0,.9.07,1.32.22.17-.67.26-1.26.26-1.77,0-.93-.21-1.69-.64-2.3-.42-.61-1.03-.89-1.8-.86-.92,0-1.69.48-2.33,1.44-.64.96-1.43,2.52-2.39,4.66-.77,1.85-1.49,3.37-2.14,4.57-.65,1.2-1.47,2.22-2.46,3.05-.99.83-2.15,1.24-3.49,1.24-.28,0-.81-.07-1.59-.22-2.37-.59-4.24-2.24-5.61-4.94-1.38-2.7-2.07-6.25-2.07-10.64,0-4.96.64-8.88,1.91-11.79,1.27-2.9,3.02-4.35,5.24-4.35,1.52,0,2.66.48,3.44,1.44.78.96,1.17,2.24,1.17,3.83,0,1.85-.55,3.43-1.64,4.74-1.1,1.31-2.49,1.97-4.18,1.97-.46,0-.94-.05-1.43-.16-.21.88-.32,1.74-.32,2.55,0,.96.24,1.75.74,2.38.49.62,1.18.94,2.06.94.81-.04,1.51-.47,2.09-1.28.58-.82,1.28-2.11,2.09-3.88.74-1.66,1.44-3.03,2.09-4.1.66-1.07,1.48-1.99,2.46-2.75.99-.76,2.15-1.13,3.5-1.13,2.89,0,5.19,1.27,6.91,3.8,1.71,2.53,2.57,6.13,2.57,10.79,0,3.07-.26,5.72-.79,7.96"/>
    <path class="st0" d="M30.95,478.41c-1.43,2.11-3.26,3.16-5.48,3.16-.67,0-1.29-.07-1.85-.22-2.33-.56-4-2.1-5-4.63-1.01-2.54-1.51-5.52-1.51-8.96,0-1.74.11-3.36.32-4.88-1.84-.04-3.12.48-3.87,1.55-.74,1.07-1.11,2.57-1.11,4.49,0,.89.1,1.74.29,2.55.19.81.48,1.85.87,3.1.35,1.04.53,1.74.53,2.11,0,.41-.23.61-.69.61-1.24.04-2.54-.44-3.9-1.44-1.36-1-2.52-2.48-3.47-4.44s-1.43-4.33-1.43-7.1c0-4.1.99-7.47,2.97-10.09,1.98-2.63,4.86-3.94,8.64-3.94,1.06,0,2.29.15,3.71.44,4.34.92,7.62,2.95,9.82,6.07,2.21,3.12,3.31,6.92,3.31,11.39s-.71,8.1-2.15,10.2M20.54,463.88c0,1.55.69,2.74,2.06,3.55,1.38.82,2.91,1.2,4.61,1.16.99-.04,1.48-.33,1.48-.88,0-.41-.31-.89-.93-1.45-.61-.55-1.55-1.1-2.78-1.64-1.23-.53-2.7-.99-4.39-1.36-.04.15-.05.35-.05.61"/>
    <path class="st0" d="M10.02,494.48c-3.06,0-5.54-2.48-5.54-5.54s2.48-5.54,5.54-5.54,5.54,2.48,5.54,5.54-2.48,5.54-5.54,5.54"/>
  </g>
</svg>